<svg width="24" height="24" viewBox="0 0 48 48" fill="none" xmlns="http://www.w3.org/2000/svg">
<path d="M23.9962 3.99597C26.4042 3.99597 28.7122 4.42197 30.8502 5.19997L28.4602 7.58797C24.8432 6.60445 21.0026 6.84361 17.5356 8.26826C14.0686 9.69292 11.1695 12.2232 9.28906 15.4657C7.40863 18.7082 6.65229 22.4812 7.13764 26.1979C7.62298 29.9147 9.32282 33.3669 11.9728 36.0178C14.6228 38.6687 18.0745 40.3697 21.7911 40.8563C25.5077 41.3429 29.2809 40.5878 32.524 38.7085C35.7671 36.8291 38.2984 33.9308 39.7242 30.4643C41.1501 26.9978 41.3905 23.1573 40.4082 19.54L42.7962 17.152C43.5949 19.3467 44.0024 21.6645 44.0002 24C44.0002 35.048 35.0442 44.004 23.9962 44.004C12.9482 44.004 3.99219 35.048 3.99219 24C3.99219 12.952 12.9482 3.99597 23.9962 3.99597ZM23.9962 12C25.0095 11.9995 26.0189 12.1272 27.0002 12.38V15.514C25.0757 14.8331 22.9769 14.8267 21.0483 15.4959C19.1197 16.1651 17.4758 17.47 16.3866 19.1965C15.2974 20.9231 14.8275 22.9686 15.054 24.9974C15.2806 27.0262 16.1901 28.9177 17.6333 30.3614C19.0765 31.8052 20.9677 32.7154 22.9964 32.9427C25.0251 33.17 27.0708 32.7008 28.7978 31.6122C30.5247 30.5236 31.8302 28.8803 32.5001 26.9519C33.17 25.0235 33.1644 22.9247 32.4842 21H35.6182C36.2439 23.4232 36.0962 25.9814 35.196 28.3166C34.2957 30.6517 32.6879 32.647 30.5975 34.0231C28.5071 35.3992 26.0387 36.0873 23.5379 35.9911C21.0371 35.8949 18.6289 35.0192 16.6504 33.4865C14.6719 31.9539 13.2221 29.841 12.5039 27.4435C11.7858 25.0461 11.8351 22.4841 12.6451 20.1161C13.4551 17.7481 14.9852 15.6927 17.0213 14.2374C19.0574 12.7821 21.4975 11.9998 24.0002 12H23.9962ZM27.9962 24C27.9959 24.8597 27.7186 25.6964 27.2055 26.3862C26.6923 27.076 25.9706 27.5821 25.1472 27.8295C24.3239 28.0769 23.4427 28.0524 22.6344 27.7597C21.826 27.467 21.1335 26.9217 20.6594 26.2045C20.1853 25.4873 19.9549 24.6365 20.0023 23.7781C20.0497 22.9196 20.3724 22.0994 20.9226 21.4388C21.4728 20.7782 22.2212 20.3124 23.0569 20.1105C23.8926 19.9086 24.7711 19.9814 25.5622 20.318L29.0022 16.878L29.0002 10.5C29.0005 10.1023 29.1588 9.72101 29.4402 9.43997L34.4402 4.43997C34.65 4.23046 34.9171 4.08781 35.2079 4.03004C35.4987 3.97227 35.8001 4.00197 36.074 4.1154C36.348 4.22882 36.5821 4.42088 36.747 4.66731C36.9118 4.91374 36.9999 5.20349 37.0002 5.49997V11H42.5002C42.7967 11.0002 43.0864 11.0883 43.3329 11.2532C43.5793 11.418 43.7713 11.6522 43.8848 11.9261C43.9982 12.2001 44.0279 12.5014 43.9701 12.7922C43.9123 13.083 43.7697 13.3502 43.5602 13.56L38.5602 18.56C38.2792 18.8414 37.8979 18.9996 37.5002 19H31.1202L27.6802 22.44C27.8842 22.92 27.9962 23.446 27.9962 24ZM36.8782 16L38.8782 14H35.4982C35.1004 14 34.7188 13.8419 34.4375 13.5606C34.1562 13.2793 33.9982 12.8978 33.9982 12.5V9.11997L32.0002 11.12V15.882C32.0419 15.9196 32.0813 15.9596 32.1182 16.002H36.8782V16Z" fill="#ffffff"/>
</svg>
