<svg width="24" height="24" viewBox="0 0 48 48" fill="none" xmlns="http://www.w3.org/2000/svg">
<path d="M10.7998 4.80005C9.20851 4.80005 7.68238 5.43219 6.55716 6.55741C5.43195 7.68263 4.7998 9.20875 4.7998 10.8V32.4C4.7998 33.9913 5.43195 35.5175 6.55716 36.6427C7.68238 37.7679 9.20851 38.4001 10.7998 38.4001H22.7398C23.0038 37.5336 23.419 36.7201 23.9638 36H10.7998C9.84503 36 8.92935 35.6208 8.25422 34.9456C7.57909 34.2705 7.1998 33.3548 7.1998 32.4V14.3976H35.9998V23.8632L36.2446 23.6184C36.883 22.9776 37.6174 22.4904 38.3998 22.1544V10.8C38.3998 9.20875 37.7677 7.68263 36.6424 6.55741C35.5172 5.43219 33.9911 4.80005 32.3998 4.80005H10.7998ZM7.1974 10.7976C7.1974 9.84287 7.57669 8.9272 8.25182 8.25206C8.92695 7.57693 9.84263 7.19765 10.7974 7.19765H32.3974C33.3522 7.19765 34.2679 7.57693 34.943 8.25206C35.6181 8.9272 35.9974 9.84287 35.9974 10.7976V11.9976H7.1974V10.7976ZM20.0446 17.148C20.2696 17.3731 20.3959 17.6783 20.3959 17.9964C20.3959 18.3146 20.2696 18.6198 20.0446 18.8448L14.8942 24L20.0446 29.1504C20.2632 29.3768 20.3841 29.6799 20.3814 29.9945C20.3787 30.3092 20.2525 30.6101 20.03 30.8326C19.8075 31.0551 19.5065 31.1813 19.1919 31.1841C18.8773 31.1868 18.5741 31.0658 18.3478 30.8472L12.3478 24.8472C12.1228 24.6222 11.9965 24.317 11.9965 23.9988C11.9965 23.6807 12.1228 23.3755 12.3478 23.1504L18.3478 17.1504C18.5728 16.9255 18.878 16.7991 19.1962 16.7991C19.5144 16.7991 19.8196 16.9255 20.0446 17.1504V17.148ZM24.3502 29.1481C24.1252 29.3734 23.9989 29.6789 23.9991 29.9973C23.9994 30.3157 24.1261 30.621 24.3514 30.8461C24.5767 31.0711 24.8822 31.1973 25.2007 31.1971C25.5191 31.1969 25.8244 31.0702 26.0494 30.8449L32.0494 24.8449C32.2744 24.6198 32.4007 24.3146 32.4007 23.9964C32.4007 23.6783 32.2744 23.3731 32.0494 23.1481L26.0494 17.148C25.8244 16.9227 25.5191 16.796 25.2007 16.7958C24.8822 16.7956 24.5767 16.9218 24.3514 17.1468C24.1261 17.3719 23.9994 17.6772 23.9991 17.9956C23.9989 18.314 24.1252 18.6195 24.3502 18.8448L29.503 24L24.3502 29.1504V29.1481ZM37.9414 25.3153L26.3494 36.9072C25.6747 37.5828 25.196 38.4289 24.9646 39.3553L24.0646 42.9505C23.9758 43.308 23.9811 43.6825 24.0798 44.0374C24.1785 44.3924 24.3674 44.7157 24.628 44.9761C24.8886 45.2365 25.2122 45.4251 25.5672 45.5235C25.9223 45.6218 26.2967 45.6267 26.6542 45.5377L30.2494 44.6401C31.1761 44.4083 32.0223 43.9287 32.6974 43.2528L44.2894 31.6609C45.1201 30.8168 45.5836 29.6787 45.5788 28.4944C45.574 27.3101 45.1013 26.1758 44.2637 25.3385C43.4262 24.5013 42.2916 24.029 41.1074 24.0247C39.9231 24.0203 38.7851 24.4842 37.9414 25.3153Z" fill="#ffffff"/>
</svg>
