<svg width="24" height="24" viewBox="0 0 48 48" fill="none" xmlns="http://www.w3.org/2000/svg">
<path d="M14.0003 10H34.0003V12C34.0003 13.1 34.9003 14 36.0003 14C37.1003 14 38.0003 13.1 38.0003 12V6C38.0003 3.8 36.2003 2.02 34.0003 2.02L14.0003 2C11.8003 2 10.0003 3.8 10.0003 6V12C10.0003 13.1 10.9003 14 12.0003 14C13.1003 14 14.0003 13.1 14.0003 12V10ZM32.2403 31.76L38.5803 25.42C38.7657 25.235 38.9128 25.0152 39.0132 24.7732C39.1135 24.5313 39.1652 24.2719 39.1652 24.01C39.1652 23.7481 39.1135 23.4887 39.0132 23.2468C38.9128 23.0048 38.7657 22.785 38.5803 22.6L32.2403 16.26C31.4603 15.48 30.1803 15.48 29.4003 16.26C29.2149 16.445 29.0678 16.6648 28.9675 16.9068C28.8671 17.1487 28.8154 17.4081 28.8154 17.67C28.8154 17.9319 28.8671 18.1913 28.9675 18.4332C29.0678 18.6752 29.2149 18.895 29.4003 19.08L34.3403 24L29.4003 28.94C29.2149 29.125 29.0678 29.3448 28.9675 29.5868C28.8671 29.8287 28.8154 30.0881 28.8154 30.35C28.8154 30.6119 28.8671 30.8713 28.9675 31.1132C29.0678 31.3552 29.2149 31.575 29.4003 31.76C30.1803 32.54 31.4603 32.54 32.2403 31.76ZM18.5803 28.92L13.6603 24L18.5803 19.08C18.7657 18.895 18.9128 18.6752 19.0132 18.4332C19.1135 18.1913 19.1652 17.9319 19.1652 17.67C19.1652 17.4081 19.1135 17.1487 19.0132 16.9068C18.9128 16.6648 18.7657 16.445 18.5803 16.26C17.8003 15.48 16.5203 15.48 15.7403 16.26L9.40032 22.6C9.21491 22.785 9.06781 23.0048 8.96745 23.2468C8.86709 23.4887 8.81543 23.7481 8.81543 24.01C8.81543 24.2719 8.86709 24.5313 8.96745 24.7732C9.06781 25.0152 9.21491 25.235 9.40032 25.42L15.7403 31.76C16.5203 32.54 17.8003 32.54 18.5803 31.76C19.3803 30.98 19.3603 29.7 18.5803 28.92ZM34.0003 38H14.0003V36C14.0003 34.9 13.1003 34 12.0003 34C10.9003 34 10.0003 34.9 10.0003 36V42C10.0003 44.2 11.8003 46 14.0003 46H34.0003C36.2003 46 38.0003 44.2 38.0003 42V36C38.0003 34.9 37.1003 34 36.0003 34C34.9003 34 34.0003 34.9 34.0003 36V38Z" fill="#ffffff"/>
</svg>
