<svg width="24" height="24" viewBox="0 0 48 48" fill="none" xmlns="http://www.w3.org/2000/svg">
<path d="M11.3092 48C10.4315 48 9.58982 47.6966 8.96923 47.1565C8.34864 46.6164 8 45.8838 8 45.12V11.312C8 9.722 9.48223 8.432 11.3092 8.432H15.2296C15.3537 8.432 15.4732 8.458 15.5766 8.504L15.572 8.502V0.336C15.572 0.15 15.7443 0 15.9581 0H29.7922C30.0059 0 30.1782 0.15 30.1782 0.336V8.454C30.2384 8.44096 30.3001 8.43424 30.3621 8.434H33.8436C35.6705 8.434 37.1527 9.724 37.1527 11.314V19.376C37.2565 19.332 37.3705 19.3094 37.486 19.31H39.2256C39.653 19.31 40 19.612 40 19.984V37.528C40 37.7068 39.9184 37.8782 39.7732 38.0046C39.6279 38.131 39.431 38.202 39.2256 38.202H37.486C37.3688 38.2023 37.2532 38.1791 37.1482 38.134L37.1527 38.136V45.12C37.1527 45.8838 36.8041 46.6164 36.1835 47.1565C35.5629 47.6966 34.7212 48 33.8436 48H11.3092ZM28.1399 41.538V43.806C28.1405 43.8955 28.1816 43.9811 28.2543 44.0444C28.327 44.1077 28.4254 44.1435 28.5283 44.144H31.5938C31.6966 44.1435 31.7951 44.1077 31.8678 44.0444C31.9405 43.9811 31.9816 43.8955 31.9822 43.806V41.538C31.9816 41.4487 31.9404 41.3632 31.8676 41.3003C31.7949 41.2373 31.6964 41.202 31.5938 41.202H28.5237C28.4212 41.2025 28.3232 41.238 28.2505 41.3009C28.1779 41.3637 28.1365 41.4489 28.1353 41.538H28.1399ZM20.8873 41.538V43.806C20.8879 43.8955 20.929 43.9811 21.0017 44.0444C21.0744 44.1077 21.1729 44.1435 21.2757 44.144H24.339C24.4418 44.1435 24.5402 44.1077 24.6129 44.0444C24.6856 43.9811 24.7267 43.8955 24.7273 43.806V41.538C24.7267 41.4487 24.6855 41.3632 24.6128 41.3003C24.54 41.2373 24.4416 41.202 24.339 41.202H21.2734C21.171 41.2025 21.0729 41.238 21.0002 41.3009C20.9276 41.3637 20.8862 41.4489 20.885 41.538H20.8873ZM13.6348 41.538V43.808C13.6348 43.994 13.8071 44.144 14.0208 44.144H17.0864C17.1892 44.1435 17.2876 44.1077 17.3603 44.0444C17.433 43.9811 17.4742 43.8955 17.4748 43.806V41.538C17.4742 41.4487 17.433 41.3632 17.3602 41.3003C17.2874 41.2373 17.189 41.202 17.0864 41.202H14.0208C13.9184 41.202 13.8202 41.2374 13.7478 41.3004C13.6754 41.3634 13.6348 41.4489 13.6348 41.538ZM28.1376 36.396V38.664C28.1382 38.7535 28.1793 38.8391 28.252 38.9024C28.3247 38.9657 28.4231 39.0015 28.526 39.002H31.5915C31.6943 39.0015 31.7928 38.9657 31.8655 38.9024C31.9382 38.8391 31.9793 38.7535 31.9799 38.664V36.394C31.9799 36.3049 31.9392 36.2194 31.8668 36.1564C31.7944 36.0934 31.6962 36.058 31.5938 36.058H28.5214C28.419 36.058 28.3208 36.0934 28.2484 36.1564C28.176 36.2194 28.1353 36.3049 28.1353 36.394V36.396H28.1376ZM20.885 36.396V38.664C20.8856 38.7535 20.9267 38.8391 20.9994 38.9024C21.0721 38.9657 21.1706 39.0015 21.2734 39.002H24.339C24.4418 39.0015 24.5402 38.9657 24.6129 38.9024C24.6856 38.8391 24.7267 38.7535 24.7273 38.664V36.394C24.7273 36.3049 24.6866 36.2194 24.6142 36.1564C24.5418 36.0934 24.4436 36.058 24.3413 36.058H21.2711C21.1687 36.058 21.0705 36.0934 20.9981 36.1564C20.9257 36.2194 20.885 36.3049 20.885 36.394V36.396ZM13.6325 36.396V38.666C13.6325 38.852 13.8048 39.002 14.0185 39.002H17.0841C17.1869 39.0015 17.2853 38.9657 17.358 38.9024C17.4307 38.8391 17.4719 38.7535 17.4725 38.664V36.394C17.4725 36.3049 17.4318 36.2194 17.3594 36.1564C17.287 36.0934 17.1888 36.058 17.0864 36.058H14.0185C13.9161 36.058 13.8179 36.0934 13.7455 36.1564C13.6731 36.2194 13.6325 36.3049 13.6325 36.394V36.396ZM28.1353 31.252V33.522C28.1353 33.708 28.3076 33.858 28.5214 33.858H31.5915C31.6939 33.858 31.7921 33.8226 31.8645 33.7596C31.9369 33.6966 31.9776 33.6111 31.9776 33.522V31.252C31.977 31.1627 31.9358 31.0772 31.863 31.0143C31.7903 30.9513 31.6918 30.916 31.5892 30.916H28.5237C28.4212 30.9165 28.3232 30.952 28.2505 31.0149C28.1779 31.0777 28.1365 31.1629 28.1353 31.252ZM20.8827 31.252V33.522C20.8827 33.708 21.0551 33.858 21.2688 33.858H24.339C24.4414 33.858 24.5395 33.8226 24.6119 33.7596C24.6844 33.6966 24.725 33.6111 24.725 33.522V31.252C24.7244 31.1627 24.6832 31.0772 24.6105 31.0143C24.5377 30.9513 24.4393 30.916 24.3367 30.916H21.2711C21.1687 30.9165 21.0706 30.952 20.9979 31.0149C20.9253 31.0777 20.8839 31.1629 20.8827 31.252ZM13.6302 31.252V33.522C13.6302 33.708 13.8025 33.858 14.0162 33.858H17.0864C17.1888 33.858 17.287 33.8226 17.3594 33.7596C17.4318 33.6966 17.4725 33.6111 17.4725 33.522V31.252C17.4719 31.1627 17.4307 31.0772 17.3579 31.0143C17.2851 30.9513 17.1867 30.916 17.0841 30.916H14.0185C13.9161 30.916 13.8179 30.9514 13.7455 31.0144C13.6731 31.0774 13.6325 31.1629 13.6325 31.252H13.6302ZM13.1476 17.826V27.65C13.1476 27.836 13.3199 27.986 13.5336 27.986H31.3709C31.4733 27.986 31.5715 27.9506 31.6439 27.8876C31.7163 27.8246 31.757 27.7391 31.757 27.65V17.826C31.7564 17.7365 31.7153 17.6509 31.6426 17.5876C31.5699 17.5243 31.4714 17.4885 31.3686 17.488H13.5359C13.4331 17.4885 13.3347 17.5243 13.262 17.5876C13.1893 17.6509 13.1482 17.7365 13.1476 17.826ZM11.9894 12.462V14.842C11.9894 15.4 12.5087 15.852 13.1499 15.852H32.451C32.7588 15.852 33.054 15.7456 33.2716 15.5562C33.4892 15.3668 33.6115 15.1099 33.6115 14.842V12.462C33.6115 12.1941 33.4892 11.9372 33.2716 11.7478C33.054 11.5584 32.7588 11.452 32.451 11.452H30.1759V13.472H31.2974V13.828H14.3104V13.472H15.048C15.2345 13.472 15.4181 13.4329 15.5835 13.358L15.5766 13.36V11.564C15.4126 11.49 15.2305 11.4516 15.0457 11.452H13.1453C12.8379 11.4525 12.5433 11.5592 12.3262 11.7485C12.109 11.9379 11.9871 12.1945 11.9871 12.462H11.9894Z" fill="#ffffff"/>
</svg>
