<svg width="24" height="24" viewBox="0 0 48 48" fill="none" xmlns="http://www.w3.org/2000/svg">
<path d="M9.6 8.02857H38.4V28.1429H43.2V6.77143C43.2 4.6995 41.58 3 39.6 3H8.4C6.42225 3 4.8 4.6995 4.8 6.77143V28.1429H9.6V8.02857ZM46.8 30.6571H1.2C0.54375 30.6571 0 31.2307 0 31.9143V33.1714C0 35.9411 2.15625 38.2 4.8 38.2H43.2C45.8438 38.2 48 35.9411 48 33.1714V31.9143C48 31.2307 47.46 30.6571 46.8 30.6571ZM27.4425 22.9729C27.735 23.2793 28.1175 23.4286 28.5 23.4286C28.8825 23.4286 29.2673 23.2763 29.5605 22.9694L33.1605 19.198C33.7464 18.5841 33.7464 17.5873 33.1605 16.9736L29.5605 13.2022C28.9746 12.5883 28.0252 12.5883 27.4395 13.2022C26.8536 13.8161 26.8536 14.8129 27.4395 15.4265L29.979 18.0854L27.4395 20.7443C26.85 21.3621 26.85 22.36 27.4425 22.9729ZM20.5575 13.2064C19.9716 12.5926 19.0223 12.5926 18.4365 13.2064L14.8365 16.9779C14.2506 17.5917 14.2506 18.5886 14.8365 19.2022L18.4365 22.9736C18.735 23.2793 19.1175 23.4286 19.5 23.4286C19.8825 23.4286 20.2673 23.2763 20.5605 22.9694C21.1464 22.3555 21.1464 21.3587 20.5605 20.745L18.0225 18.0857L20.562 15.4269C21.0825 14.8171 21.0825 13.8193 20.5575 13.2064Z" fill="#ffffff"/>
</svg>
